#!OML:ASF H:\Not Pregnant\Project 1\Capture day 1\Session 1\non-pregnant.ASF
:FULLY-SPECIFIED
:DEGREES
3060
root 5.37923 11.3959 10.1197 97.6476 6.06879 -3.40464
lowerback 36.7742 0.655324 8.49641
upperback -3.17925 3.71203 -3.99386
thorax -22.2919 0.0134467 -11.3091
lowerneck 13.5687 -13.3441 -24.5863
upperneck -15.3667 -18.2293 48.7087
head 2.2404 -12.8115 24.239
rclavicle -4.13472e-014 1.19271e-014
rhumerus 82.2205 -19.5733 -56.9569
rradius 27.0047
rwrist 25.67
rhand -46.2753 -14.6645
rfingers 7.12502
rthumb -19.0105 316.245
lclavicle -4.13472e-014 1.19271e-014
lhumerus 75.4322 15.8644 10.4891
lradius 38.5266
lwrist 52.2932
lhand -47.376 -44.3287
lfingers 7.12502
lthumb -20.0687 -15.3451
rfemur -71.4143 7.02582 27.5468
rtibia 38.6425
rfoot -49.9329 -4.51269
rtoes -27.8253
lfemur -83.838 2.32817 -10.8103
ltibia 64.8516
lfoot -37.9443 8.57218
ltoes -43.3156
3061
root 5.36388 11.3868 10.1465 97.3436 6.0503 -3.43473
lowerback 36.5324 0.751106 8.40207
upperback -3.18609 3.78939 -3.93948
thorax -22.1779 0.071756 -11.2153
lowerneck 13.6426 -13.3449 -24.5367
upperneck -15.4432 -18.2115 48.6857
head 2.18216 -12.808 24.2246
rclavicle -6.20208e-014 2.42517e-014
rhumerus 81.5289 -19.0497 -56.7927
rradius 27.0382
rwrist 25.5786
rhand -46.6224 -14.4059
rfingers 7.12502
rthumb -19.3442 316.536
lclavicle -6.20208e-014 2.42517e-014
lhumerus 75.4171 15.0822 10.9017
lradius 38.467
lwrist 51.9751
lhand -47.3432 -44.7781
lfingers 7.12502
lthumb -20.0372 -15.7912
rfemur -70.9101 6.96751 27.6697
rtibia 38.5613
rfoot -49.8999 -4.11481
rtoes -27.7671
lfemur -84.0975 2.57183 -10.9929
ltibia 66.1481
lfoot -37.2584 7.84244
ltoes -43.0803
3062
root 5.34856 11.3786 10.1751 97.0066 6.02149 -3.47546
lowerback 36.3326 0.853825 8.29289
upperback -3.18921 3.87204 -3.88655
thorax -22.0779 0.132348 -11.1192
lowerneck 13.7302 -13.3481 -24.4989
upperneck -15.507 -18.2047 48.668
head 2.13263 -12.8112 24.2171
rclavicle 6.36111e-015 -1.03368e-014
rhumerus 80.8597 -18.5308 -56.7105
rradius 27.0664
rwrist 25.6027
rhand -46.9504 -14.1605
rfingers 7.12502
rthumb -19.6596 316.814
lclavicle 6.36111e-015 -1.03368e-014
lhumerus 75.4265 14.2964 11.3706
lradius 38.3845
lwrist 51.6075
lhand -47.3043 -45.2119
lfingers 7.12502
lthumb -19.9998 -16.2211
rfemur -70.3561 6.8939 27.8039
rtibia 38.4614
rfoot -49.8704 -3.68328
rtoes -27.6839
lfemur -84.346 2.80922 -11.1721
ltibia 67.4971
lfoot -36.5589 7.14912
ltoes -42.7797
3063
root 5.33332 11.3709 10.206 96.6158 5.97409 -3.53487
lowerback 36.2059 0.961231 8.16468
upperback -3.18093 3.95534 -3.84144
thorax -21.9975 0.192969 -11.0247
lowerneck 13.8595 -13.336 -24.4532
upperneck -15.6085 -18.1685 48.6583
head 2.05163 -12.8072 24.2375
rclavicle -2.38542e-014 -2.42517e-014
rhumerus 80.2296 -18.0197 -56.7513
rradius 27.0893
rwrist 25.7628
rhand -47.2631 -13.9263
rfingers 7.12502
rthumb -19.9602 317.079
lclavicle -2.38542e-014 -2.42517e-014
lhumerus 75.4457 13.5208 11.8619
lradius 38.2889
lwrist 51.2086
lhand -47.2632 -45.6356
lfingers 7.12502
lthumb -19.9603 -16.6407
rfemur -69.7238 6.81165 27.9385
rtibia 38.3362
rfoot -49.8365 -3.23801
rtoes -27.614
lfemur -84.5577 3.06368 -11.3786
ltibia 68.8952
lfoot -35.8873 6.37052
ltoes -42.3106
3064
root 5.31809 11.3636 10.2393 96.1696 5.91492 -3.6141
lowerback 36.1551 1.06892 8.02955
upperback -3.15941 4.03737 -3.81034
thorax -21.9351 0.251002 -10.9454
lowerneck 14.0119 -13.3107 -24.384
upperneck -15.7337 -18.1019 48.6529
head 1.94293 -12.7927 24.2746
rclavicle -4.77083e-015 2.74323e-014
rhumerus 79.6382 -17.5361 -56.9049
rradius 27.1077
rwrist 26.0274
rhand -47.5591 -13.7138
rfingers 7.12502
rthumb -20.2447 317.321
lclavicle -4.77083e-015 2.74323e-014
lhumerus 75.4756 12.7605 12.3605
lradius 38.1869
lwrist 50.7826
lhand -47.2252 -46.0515
lfingers 7.12502
lthumb -19.9237 -17.0528
rfemur -69.0094 6.72342 28.081
rtibia 38.1828
rfoot -49.7962 -2.78958
rtoes -27.567
lfemur -84.7296 3.33774 -11.6025
ltibia 70.3411
lfoot -35.2161 5.56153
ltoes -41.6858
3065
root 5.30272 11.3569 10.2749 95.6662 5.84873 -3.71307
lowerback 36.1852 1.17003 7.8958
upperback -3.11919 4.11147 -3.79778
thorax -21.8864 0.303039 -10.8878
lowerneck 14.1687 -13.274 -24.2957
upperneck -15.8965 -18.0039 48.6781
head 1.81376 -12.7708 24.3501
rclavicle 4.77083e-015 -5.1684e-015
rhumerus 79.0983 -17.0837 -57.1893
rradius 27.1226
rwrist 26.3824
rhand -47.8469 -13.5085
rfingers 7.12502
rthumb -20.5213 317.556
lclavicle 4.77083e-015 -5.1684e-015
lhumerus 75.5022 12.0336 12.83
lradius 38.0928
lwrist 50.3604
lhand -47.1867 -46.462
lfingers 7.12502
lthumb -19.8868 -17.4595
rfemur -68.211 6.64102 28.2247
rtibia 38.003
rfoot -49.745 -2.35322
rtoes -27.5443
lfemur -84.8628 3.64082 -11.8463
ltibia 71.8339
lfoot -34.5338 4.74489
ltoes -40.9223
3066
root 5.28733 11.3501 10.3109 95.1671 5.7884 -3.83832
lowerback 36.2096 1.27372 7.77176
upperback -3.07142 4.18849 -3.80125
thorax -21.8233 0.355131 -10.8551
lowerneck 14.3411 -13.2405 -24.1429
upperneck -16.1008 -17.8833 48.6885
head 1.64596 -12.7417 24.4056
rclavicle -3.18055e-014 4.77083e-015
rhumerus 78.605 -16.6584 -57.6135
rradius 27.1347
rwrist 26.8315
rhand -48.1228 -13.3174
rfingers 7.12502
rthumb -20.7864 317.776
lclavicle -3.18055e-014 4.77083e-015
lhumerus 75.5184 11.3322 13.2537
lradius 38.0144
lwrist 49.9616
lhand -47.1523 -46.8784
lfingers 7.12502
lthumb -19.8537 -17.8725
rfemur -67.4038 6.57463 28.3834
rtibia 37.8021
rfoot -49.6745 -1.89754
rtoes -27.5158
lfemur -85.0431 3.99684 -12.1069
ltibia 73.3811
lfoot -33.8372 3.96281
ltoes -40.0874
3067
root 5.27185 11.3429 10.347 94.6918 5.73768 -3.99167
lowerback 36.2018 1.3807 7.66003
upperback -3.01874 4.26901 -3.82079
thorax -21.7367 0.408123 -10.8478
lowerneck 14.5013 -13.2314 -23.9038
upperneck -16.3276 -17.7672 48.6558
head 1.45299 -12.7126 24.3888
rclavicle -7.63333e-014 7.51406e-014
rhumerus 78.1612 -16.2568 -58.1828
rradius 27.141
rwrist 27.3675
rhand -48.3893 -13.1286
rfingers 7.12502
rthumb -21.0424 317.993
lclavicle -7.63333e-014 7.51406e-014
lhumerus 75.5135 10.6658 13.5974
lradius 37.9617
lwrist 49.6212
lhand -47.1239 -47.2999
lfingers 7.12502
lthumb -19.8264 -18.2911
rfemur -66.6224 6.53446 28.5549
rtibia 37.6061
rfoot -49.5935 -1.42669
rtoes -27.4756
lfemur -85.2979 4.41491 -12.3858
ltibia 74.9815
lfoot -33.14 3.24333
ltoes -39.2505
3068
root 5.25632 11.3349 10.3817 94.2997 5.70672 -4.17536
lowerback 36.0828 1.50503 7.55662
upperback -2.97693 4.36875 -3.84361
thorax -21.6088 0.471322 -10.8527
lowerneck 14.6727 -13.2416 -23.6172
upperneck -16.5602 -17.6656 48.5897
head 1.2479 -12.6899 24.323
rclavicle 4.92986e-014 2.10712e-014
rhumerus 77.7412 -15.8681 -58.8411
rradius 27.1416
rwrist 27.9475
rhand -48.6494 -12.9312
rfingers 7.12502
rthumb -21.2923 318.218
lclavicle 4.92986e-014 2.10712e-014
lhumerus 75.4843 10.0146 13.8772
lradius 37.9333
lwrist 49.3392
lhand -47.0996 -47.7334
lfingers 7.12502
lthumb -19.803 -18.7222
rfemur -65.945 6.52854 28.7492
rtibia 37.4348
rfoot -49.5047 -0.955149
rtoes -27.4594
lfemur -85.7101 4.90138 -12.6763
ltibia 76.6364
lfoot -32.4908 2.58828
ltoes -38.5537
3069
root 5.24263 11.3253 10.4116 94.0994 5.67657 -4.2892
lowerback 35.7101 1.60524 7.51722
upperback -2.95399 4.44908 -3.8788
thorax -21.3886 0.527941 -10.885
lowerneck 14.85 -13.2671 -23.3141
upperneck -16.7806 -17.5849 48.4998
head 1.04692 -12.6755 24.2244
rclavicle -4.92986e-014 2.54444e-014
rhumerus 77.3287 -15.496 -59.5322
rradius 27.1354
rwrist 28.5246
rhand -48.9066 -12.7221
rfingers 7.12502
rthumb -21.5393 318.456
lclavicle -4.92986e-014 2.54444e-014
lhumerus 75.4374 9.37472 14.1023
lradius 37.9244
lwrist 49.1089
lhand -47.0829 -48.1674
lfingers 7.12502
lthumb -19.787 -19.1545
rfemur -65.5161 6.49909 28.8999
rtibia 37.3029
rfoot -49.3815 -0.536618
rtoes -27.485
lfemur -86.4325 5.35748 -13.0208
ltibia 78.3361
lfoot -31.8938 1.99719
ltoes -38.0849
3070
root 5.23006 11.3149 10.4389 94.0431 5.65328 -4.35587
lowerback 35.1579 1.68902 7.52862
upperback -2.94574 4.51983 -3.91924
thorax -21.1017 0.581536 -10.9368
lowerneck 15.0246 -13.2903 -23.0484
upperneck -16.9919 -17.5125 48.4297
head 0.863971 -12.6666 24.1539
rclavicle 6.36111e-014 3.57812e-015
rhumerus 76.9174 -15.1459 -60.1869
rradius 27.1214
rwrist 29.0413
rhand -49.1699 -12.5158
rfingers 7.12502
rthumb -21.7922 318.691
lclavicle 6.36111e-014 3.57812e-015
lhumerus 75.3868 8.74837 14.3106
lradius 37.9173
lwrist 48.892
lhand -47.0722 -48.5954
lfingers 7.12502
lthumb -19.7767 -19.5815
rfemur -65.2745 6.46355 29.0221
rtibia 37.2017
rfoot -49.2306 -0.159856
rtoes -27.5234
lfemur -87.3962 5.78342 -13.4006
ltibia 80.0636
lfoot -31.377 1.50715
ltoes -37.9159
3071
root 5.21683 11.3046 10.4674 93.9764 5.62494 -4.4459
lowerback 34.6286 1.78487 7.52303
upperback -2.93045 4.60092 -3.9562
thorax -20.8131 0.642098 -10.9788
lowerneck 15.1562 -13.3086 -22.8606
upperneck -17.1643 -17.4589 48.4064
head 0.732036 -12.665 24.1321
rclavicle -3.97569e-014 3.53837e-014
rhumerus 76.5107 -14.8183 -60.7702
rradius 27.1053
rwrist 29.4759
rhand -49.4413 -12.3062
rfingers 7.12502
rthumb -22.0528 318.931
lclavicle -3.97569e-014 3.53837e-014
lhumerus 75.3333 8.14606 14.5116
lradius 37.9039
lwrist 48.6771
lhand -47.0699 -49.0175
lfingers 7.12502
lthumb -19.7745 -20.0034
rfemur -65.0191 6.46537 29.1282
rtibia 37.106
rfoot -49.0631 0.164072
rtoes -27.5924
lfemur -88.3945 6.25016 -13.8277
ltibia 81.8004
lfoot -30.9932 1.02927
ltoes -37.9546
3072
root 5.2022 11.2955 10.499 93.8361 5.58846 -4.56301
lowerback 34.2169 1.88761 7.48559
upperback -2.90316 4.68541 -3.98774
thorax -20.5645 0.704343 -11.0029
lowerneck 15.2199 -13.3217 -22.7541
upperneck -17.2554 -17.4316 48.4258
head 0.669882 -12.6684 24.1448
rclavicle 7.79236e-014 1.07344e-014
rhumerus 76.1094 -14.5048 -61.2888
rradius 27.0891
rwrist 29.8422
rhand -49.7155 -12.0947
rfingers 7.12502
rthumb -22.3161 319.174
lclavicle 7.79236e-014 1.07344e-014
lhumerus 75.2751 7.56548 14.7104
lradius 37.8787
lwrist 48.4517
lhand -47.0759 -49.4335
lfingers 7.12502
lthumb -19.7803 -20.42
rfemur -64.6575 6.50864 29.2126
rtibia 36.9755
rfoot -48.8638 0.453473
rtoes -27.6557
lfemur -89.3409 6.75673 -14.2959
ltibia 83.5289
lfoot -30.7214 0.556692
ltoes -38.1046
3073
root 5.18514 11.2886 10.5363 93.5337 5.53829 -4.73674
lowerback 34.0385 2.00917 7.3822
upperback -2.85151 4.78138 -4.00996
thorax -20.397 0.771256 -10.9959
lowerneck 15.2245 -13.3316 -22.7232
upperneck -17.2901 -17.428 48.4976
head 0.669159 -12.6797 24.2016
rclavicle 2.22639e-014 3.22031e-014
rhumerus 75.7126 -14.2073 -61.7459
rradius 27.0784
rwrist 30.1521
rhand -50.0004 -11.8764
rfingers 7.12502
rthumb -22.5894 319.425
lclavicle 2.22639e-014 3.22031e-014
lhumerus 75.2191 7.00929 14.9193
lradius 37.8377
lwrist 48.2063
lhand -47.0861 -49.8368
lfingers 7.12502
lthumb -19.7901 -20.8243
rfemur -64.07 6.60866 29.2827
rtibia 36.7859
rfoot -48.635 0.688848
rtoes -27.7219
lfemur -90.1148 7.33107 -14.7928
ltibia 85.2355
lfoot -30.5523 0.0732943
ltoes -38.2846
